<?xml version="1.0" encoding="UTF-8" standalone="no"?>
<svg
   width="220"
   height="48"
   viewBox="0 0 220 48"
   role="img"
   aria-label="2 weeks per blister"
   version="1.1"
   id="svg6"
   sodipodi:docname="2weeksperblister.svg"
   inkscape:version="1.4.2 (f4327f4, 2025-05-13)"
   xmlns:inkscape="http://www.inkscape.org/namespaces/inkscape"
   xmlns:sodipodi="http://sodipodi.sourceforge.net/DTD/sodipodi-0.dtd"
   xmlns="http://www.w3.org/2000/svg"
   xmlns:svg="http://www.w3.org/2000/svg">
  <defs
     id="defs6" />
  <sodipodi:namedview
     id="namedview6"
     pagecolor="#ffffff"
     bordercolor="#000000"
     borderopacity="0.25"
     inkscape:showpageshadow="2"
     inkscape:pageopacity="0.0"
     inkscape:pagecheckerboard="0"
     inkscape:deskcolor="#d1d1d1"
     inkscape:zoom="10.427273"
     inkscape:cx="110"
     inkscape:cy="24.02354"
     inkscape:window-width="2400"
     inkscape:window-height="1494"
     inkscape:window-x="-11"
     inkscape:window-y="-11"
     inkscape:window-maximized="1"
     inkscape:current-layer="svg6" />
  <g
     fill="none"
     stroke="currentColor"
     stroke-width="2.5"
     stroke-linejoin="round"
     stroke-linecap="round"
     id="g3">
    <path
       id="rect1"
       d="m 18,8 h 76 c 6.648,0 12,5.352 12,12 v 8 c 0,6.648 -5.352,12 -12,12 H 18 C 11.352,40 6,34.648 6,28 V 20 C 6,13.352 11.352,8 18,8 Z" />
    <path
       id="rect2"
       d="m 126,8 h 76 c 6.648,0 12,5.352 12,12 v 8 c 0,6.648 -5.352,12 -12,12 h -76 c -6.648,0 -12,-5.352 -12,-12 v -8 c 0,-6.648 5.352,-12 12,-12 z" />
    <!-- subtle internal dividers (shape-based, not text) -->
    <path
       d="M56 14 V34"
       opacity="0.55"
       id="path2" />
    <path
       d="M164 14 V34"
       opacity="0.55"
       id="path3" />
  </g>
  <!-- See 1weekperblister.svg note re QtSvg baseline handling -->
  <g
     fill="currentColor"
     font-family="ui-rounded, system-ui, -apple-system, 'Segoe UI', Arial, sans-serif"
     font-size="18"
     font-weight="700"
     text-anchor="middle"
     id="g6">
    <path
       d="M 33.135742,17.415234 V 30.3 h -2.768555 v -9.75586 q -0.228515,0.202149 -0.544921,0.386719 -0.307618,0.175781 -0.65918,0.325195 -0.351563,0.140625 -0.729492,0.246094 -0.37793,0.09668 -0.747071,0.140625 v -2.33789 q 1.081055,-0.316407 2.039063,-0.808594 0.958008,-0.492188 1.731445,-1.081055 z"
       id="text3"
       style="fill:#000000"
       aria-label="1" />
    <path
       d="M 79.59375,27.997265 H 84.9375 V 30.3 h -8.384766 v -0.949219 q 0,-0.966797 0.325196,-1.731445 0.325195,-0.773438 0.817382,-1.379883 0.492188,-0.615235 1.072266,-1.081055 0.588867,-0.474609 1.116211,-0.852539 Q 80.4375,23.910351 80.850586,23.55 81.272461,23.189648 81.553711,22.838086 81.84375,22.477734 81.984375,22.117383 82.125,21.748242 82.125,21.335156 q 0,-0.808594 -0.457031,-1.22168 -0.457032,-0.413086 -1.397461,-0.413086 -1.625977,0 -3.111328,1.291993 v -2.44336 q 1.643554,-1.063476 3.708984,-1.063476 0.958008,0 1.713867,0.254882 0.764649,0.246094 1.291992,0.711914 0.527344,0.465821 0.799805,1.13379 0.28125,0.659179 0.28125,1.476562 0,0.870117 -0.272461,1.546875 -0.263672,0.676758 -0.711914,1.230469 -0.439453,0.553711 -1.019531,1.019531 -0.580078,0.457031 -1.204102,0.887695 -0.421875,0.298828 -0.817383,0.597657 -0.386718,0.290039 -0.685546,0.580078 -0.298829,0.28125 -0.47461,0.553711 -0.175781,0.272461 -0.175781,0.518554 z"
       id="text4"
       style="fill:#000000"
       aria-label="2" />
    <path
       d="m 134.85156,29.886914 v -2.416992 q 1.26563,0.922851 2.95313,0.922851 1.06347,0 1.65234,-0.457031 0.59766,-0.457031 0.59766,-1.274414 0,-0.84375 -0.73828,-1.300781 -0.7295,-0.457032 -2.0127,-0.457032 h -1.16894 v -2.126953 h 1.08105 q 2.46094,0 2.46094,-1.634765 0,-1.538086 -1.88965,-1.538086 -1.26563,0 -2.46094,0.817382 v -2.267578 q 1.32715,-0.667968 3.09375,-0.667968 1.9336,0 3.00586,0.870117 1.08106,0.870117 1.08106,2.258789 0,2.469726 -2.50489,3.09375 v 0.04394 q 1.33594,0.166992 2.10938,0.975586 0.77344,0.799805 0.77344,1.96875 0,1.766602 -1.292,2.794922 -1.29199,1.02832 -3.56836,1.02832 -1.95117,0 -3.17285,-0.632812 z"
       id="text5"
       style="fill:#000000"
       aria-label="3" />
    <path
       d="m 192.19043,17.696484 v 7.945313 h 1.51172 v 2.074218 h -1.51172 V 30.3 h -2.53125 v -2.583985 h -5.49316 v -2.170898 q 0.72949,-0.817383 1.51171,-1.78418 0.78223,-0.975586 1.51172,-2.003906 0.7295,-1.02832 1.35352,-2.06543 0.63281,-1.045898 1.07226,-1.995117 z m -5.53711,7.945313 h 3.00586 v -4.403321 q -0.30762,0.571289 -0.66797,1.160157 -0.36035,0.580078 -0.75586,1.151367 -0.39551,0.5625 -0.7998,1.098633 -0.4043,0.527343 -0.78223,0.993164 z"
       id="text6"
       style="fill:#000000"
       aria-label="4" />
  </g>
</svg>
